<?xml version="1.0" encoding="UTF-8" standalone="no"?> <svg xmlns="http://www.w3.org/2000/svg" xmlns:xlink="http://www.w3.org/1999/xlink" viewBox="0 0 72 72"><defs><style>.cls-1{fill:url(#linear-gradient);}.cls-2{fill:url(#linear-gradient-2);}.cls-3{fill:url(#linear-gradient-3);}.cls-4{fill:url(#linear-gradient-4);}.cls-5{fill:url(#linear-gradient-5);}.cls-6{fill:url(#linear-gradient-6);}</style><linearGradient id="linear-gradient" x1="36" y1="14.232" x2="36" y2="48.625" gradientUnits="userSpaceOnUse"><stop offset="0" stop-color="#db686b"/><stop offset="1" stop-color="#c23542"/></linearGradient><linearGradient id="linear-gradient-2" x1="36" y1="17.5" x2="36" y2="50.935" gradientUnits="userSpaceOnUse"><stop offset="0" stop-color="#fed200"/><stop offset="1" stop-color="#f59815"/></linearGradient><linearGradient id="linear-gradient-3" x1="36" y1="22.214" x2="36" y2="49.86" gradientUnits="userSpaceOnUse"><stop offset="0" stop-color="#34ca82"/><stop offset="1" stop-color="#37a477"/></linearGradient><linearGradient id="linear-gradient-4" x1="36" y1="28.429" x2="36" y2="50.714" gradientUnits="userSpaceOnUse"><stop offset="0" stop-color="#4793eb"/><stop offset="1" stop-color="#2367ec"/></linearGradient><linearGradient id="linear-gradient-5" x1="17.5" y1="45.411" x2="17.5" y2="58.116" gradientUnits="userSpaceOnUse"><stop offset="0" stop-color="#fff"/><stop offset="0.345" stop-color="#f5f7f7"/><stop offset="1" stop-color="#e6eaeb"/></linearGradient><linearGradient id="linear-gradient-6" x1="54.5" y1="45.571" x2="54.5" y2="57.357" xlink:href="#linear-gradient-5"/></defs><title>Rainbow</title><g id="Rainbow"><path class="cls-1" d="M65,43a28.8,28.8,0,0,1-1.43,9H45.37a13,13,0,1,0-18.74,0H8.43A29,29,0,1,1,65,43Z"/><path class="cls-2" d="M61,43a24.692,24.692,0,0,1-1.68,9H45.37a13,13,0,1,0-18.74,0H12.68A24.692,24.692,0,0,1,11,43a25,25,0,0,1,50,0Z"/><path class="cls-3" d="M57,43a20.867,20.867,0,0,1-2.02,9H45.37a13,13,0,1,0-18.74,0H17.02A21,21,0,1,1,57,43Z"/><path class="cls-4" d="M53,43a16.84,16.84,0,0,1-2.58,9H45.37a13,13,0,1,0-18.74,0H21.58A17,17,0,1,1,53,43Z"/><path class="cls-5" d="M25,58H10a4,4,0,0,1-4-4H6a4,4,0,0,1,4-4h1a5,5,0,0,1,10,0h4a4,4,0,0,1,4,4h0A4,4,0,0,1,25,58Z"/><path class="cls-6" d="M62,58H47a4,4,0,0,1-4-4h0a4,4,0,0,1,4-4h2a5,5,0,0,1,10,0h3a4,4,0,0,1,4,4h0A4,4,0,0,1,62,58Z"/></g></svg>